<svg width="1024" height="1024" viewBox="0 0 1024 1024" fill="none" xmlns="http://www.w3.org/2000/svg">
<g clip-path="url(#clip0_3_3)">
<rect width="1024" height="1024" fill="#1E1E2E"/>
<g opacity="0.37">
<path d="M185.793 267.236C233.287 267.236 271.789 228.734 271.789 181.24C271.789 133.745 233.287 95.2437 185.793 95.2437C138.299 95.2437 99.7969 133.745 99.7969 181.24C99.7969 228.734 138.299 267.236 185.793 267.236Z" fill="#585858"/>
<path d="M359.733 734.427C407.227 734.427 445.729 695.925 445.729 648.431C445.729 600.937 407.227 562.435 359.733 562.435C312.238 562.435 273.737 600.937 273.737 648.431C273.737 695.925 312.238 734.427 359.733 734.427Z" fill="#585858"/>
<path d="M744.668 861.429C792.162 861.429 830.664 822.928 830.664 775.433C830.664 727.939 792.162 689.437 744.668 689.437C697.173 689.437 658.672 727.939 658.672 775.433C658.672 822.928 697.173 861.429 744.668 861.429Z" fill="#585858"/>
<path d="M124.457 835.219C171.951 835.219 210.453 796.717 210.453 749.223C210.453 701.729 171.951 663.227 124.457 663.227C76.9625 663.227 38.4607 701.729 38.4607 749.223C38.4607 796.717 76.9625 835.219 124.457 835.219Z" fill="#585858"/>
<path d="M678.929 493.322C726.424 493.322 764.925 454.82 764.925 407.326C764.925 359.832 726.424 321.33 678.929 321.33C631.435 321.33 592.933 359.832 592.933 407.326C592.933 454.82 631.435 493.322 678.929 493.322Z" fill="#585858"/>
<path d="M495.888 555.088C543.382 555.088 581.884 516.586 581.884 469.092C581.884 421.598 543.382 383.096 495.888 383.096C448.394 383.096 409.892 421.598 409.892 469.092C409.892 516.586 448.394 555.088 495.888 555.088Z" fill="#585858"/>
<path d="M366.654 233.126C414.149 233.126 452.65 194.624 452.65 147.13C452.65 99.6352 414.149 61.1335 366.654 61.1335C319.16 61.1335 280.658 99.6352 280.658 147.13C280.658 194.624 319.16 233.126 366.654 233.126Z" fill="#585858"/>
<path d="M350.922 418.847C398.416 418.847 436.918 380.345 436.918 332.851C436.918 285.357 398.416 246.855 350.922 246.855C303.427 246.855 264.926 285.357 264.926 332.851C264.926 380.345 303.427 418.847 350.922 418.847Z" fill="#585858"/>
<path d="M220.24 694.355C267.734 694.355 306.236 655.853 306.236 608.359C306.236 560.865 267.734 522.363 220.24 522.363C172.746 522.363 134.244 560.865 134.244 608.359C134.244 655.853 172.746 694.355 220.24 694.355Z" fill="#585858"/>
<path d="M52.8476 703.773C100.342 703.773 138.844 665.271 138.844 617.777C138.844 570.283 100.342 531.781 52.8476 531.781C5.3533 531.781 -33.1485 570.283 -33.1485 617.777C-33.1485 665.271 5.3533 703.773 52.8476 703.773Z" fill="#585858"/>
<path d="M-5.92488 298.109C41.5695 298.109 80.0712 259.607 80.0712 212.112C80.0712 164.618 41.5695 126.116 -5.92488 126.116C-53.4192 126.116 -91.921 164.618 -91.921 212.112C-91.921 259.607 -53.4192 298.109 -5.92488 298.109Z" fill="#585858"/>
<path d="M224.814 1043.79C272.309 1043.79 310.81 1005.28 310.81 957.789C310.81 910.295 272.309 871.793 224.814 871.793C177.32 871.793 138.818 910.295 138.818 957.789C138.818 1005.28 177.32 1043.79 224.814 1043.79Z" fill="#585858"/>
<path d="M540.234 776.307C587.728 776.307 626.23 737.805 626.23 690.311C626.23 642.817 587.728 604.315 540.234 604.315C492.74 604.315 454.238 642.817 454.238 690.311C454.238 737.805 492.74 776.307 540.234 776.307Z" fill="#585858"/>
<path d="M103.699 417.678C151.194 417.678 189.695 379.176 189.695 331.682C189.695 284.187 151.194 245.686 103.699 245.686C56.2049 245.686 17.7031 284.187 17.7031 331.682C17.7031 379.176 56.2049 417.678 103.699 417.678Z" fill="#585858"/>
<path d="M25.2615 542.888C72.7558 542.888 111.258 504.386 111.258 456.892C111.258 409.398 72.7558 370.896 25.2615 370.896C-22.2328 370.896 -60.7346 409.398 -60.7346 456.892C-60.7346 504.386 -22.2328 542.888 25.2615 542.888Z" fill="#585858"/>
<path d="M578.923 297.665C626.417 297.665 664.919 259.163 664.919 211.668C664.919 164.174 626.417 125.672 578.923 125.672C531.429 125.672 492.927 164.174 492.927 211.668C492.927 259.163 531.429 297.665 578.923 297.665Z" fill="#585858"/>
<path d="M293.414 568.824C340.908 568.824 379.41 530.322 379.41 482.828C379.41 435.334 340.908 396.832 293.414 396.832C245.919 396.832 207.417 435.334 207.417 482.828C207.417 530.322 245.919 568.824 293.414 568.824Z" fill="#585858"/>
<path d="M262.248 125.968C309.742 125.968 348.244 87.4658 348.244 39.9715C348.244 -7.52287 309.742 -46.0246 262.248 -46.0246C214.754 -46.0246 176.252 -7.52287 176.252 39.9715C176.252 87.4658 214.754 125.968 262.248 125.968Z" fill="#585858"/>
<path d="M15.2464 140.78C62.7408 140.78 101.243 102.278 101.243 54.7837C101.243 7.28938 62.7408 -31.2124 15.2464 -31.2124C-32.2479 -31.2124 -70.7497 7.28938 -70.7497 54.7837C-70.7497 102.278 -32.2479 140.78 15.2464 140.78Z" fill="#585858"/>
<path d="M50.5955 952.392C98.0898 952.392 136.592 913.891 136.592 866.396C136.592 818.902 98.0898 780.4 50.5955 780.4C3.10114 780.4 -35.4006 818.902 -35.4006 866.396C-35.4006 913.891 3.10114 952.392 50.5955 952.392Z" fill="#585858"/>
<path d="M373.402 874.424C420.896 874.424 459.398 835.922 459.398 788.428C459.398 740.934 420.896 702.432 373.402 702.432C325.907 702.432 287.405 740.934 287.405 788.428C287.405 835.922 325.907 874.424 373.402 874.424Z" fill="#585858"/>
<path d="M590.26 980.892C637.755 980.892 676.257 942.39 676.257 894.896C676.257 847.402 637.755 808.9 590.26 808.9C542.766 808.9 504.264 847.402 504.264 894.896C504.264 942.39 542.766 980.892 590.26 980.892Z" fill="#585858"/>
<path d="M888.23 813.448C935.724 813.448 974.226 774.946 974.226 727.452C974.226 679.958 935.724 641.456 888.23 641.456C840.736 641.456 802.234 679.958 802.234 727.452C802.234 774.946 840.736 813.448 888.23 813.448Z" fill="#585858"/>
<path d="M456.506 1090.12C504.001 1090.12 542.502 1051.61 542.502 1004.12C542.502 956.626 504.001 918.124 456.506 918.124C409.012 918.124 370.51 956.626 370.51 1004.12C370.51 1051.61 409.012 1090.12 456.506 1090.12Z" fill="#585858"/>
<path d="M693.481 722.39C740.976 722.39 779.477 683.888 779.477 636.394C779.477 588.9 740.976 550.398 693.481 550.398C645.987 550.398 607.485 588.9 607.485 636.394C607.485 683.888 645.987 722.39 693.481 722.39Z" fill="#585858"/>
<path d="M832.47 641.342C879.964 641.342 918.466 602.84 918.466 555.346C918.466 507.852 879.964 469.35 832.47 469.35C784.975 469.35 746.474 507.852 746.474 555.346C746.474 602.84 784.975 641.342 832.47 641.342Z" fill="#585858"/>
<path d="M985.773 579.99C1033.27 579.99 1071.77 541.488 1071.77 493.994C1071.77 446.499 1033.27 407.998 985.773 407.998C938.278 407.998 899.777 446.499 899.777 493.994C899.777 541.488 938.278 579.99 985.773 579.99Z" fill="#585858"/>
<path d="M710.966 1050.48C758.461 1050.48 796.963 1011.98 796.963 964.488C796.963 916.993 758.461 878.492 710.966 878.492C663.472 878.492 624.97 916.993 624.97 964.488C624.97 1011.98 663.472 1050.48 710.966 1050.48Z" fill="#585858"/>
<path d="M854.368 299.766C901.863 299.766 940.365 261.264 940.365 213.77C940.365 166.275 901.863 127.773 854.368 127.773C806.874 127.773 768.372 166.275 768.372 213.77C768.372 261.264 806.874 299.766 854.368 299.766Z" fill="#585858"/>
<path d="M870.282 504.123C917.777 504.123 956.278 465.621 956.278 418.127C956.278 370.632 917.777 332.13 870.282 332.13C822.788 332.13 784.286 370.632 784.286 418.127C784.286 465.621 822.788 504.123 870.282 504.123Z" fill="#585858"/>
<path d="M639.446 83.7853C686.94 83.7853 725.442 45.2836 725.442 -2.21078C725.442 -49.7051 686.94 -88.2069 639.446 -88.2069C591.951 -88.2069 553.449 -49.7051 553.449 -2.21078C553.449 45.2836 591.951 83.7853 639.446 83.7853Z" fill="#585858"/>
<path d="M475.458 120.95C522.952 120.95 561.454 82.4478 561.454 34.9535C561.454 -12.5409 522.952 -51.0426 475.458 -51.0426C427.964 -51.0426 389.462 -12.5409 389.462 34.9535C389.462 82.4478 427.964 120.95 475.458 120.95Z" fill="#585858"/>
<path d="M844.944 959.941C892.438 959.941 930.94 921.44 930.94 873.945C930.94 826.451 892.438 787.949 844.944 787.949C797.449 787.949 758.948 826.451 758.948 873.945C758.948 921.44 797.449 959.941 844.944 959.941Z" fill="#585858"/>
<path d="M962.131 1083.3C1009.63 1083.3 1048.13 1044.8 1048.13 997.308C1048.13 949.814 1009.63 911.312 962.131 911.312C914.636 911.312 876.135 949.814 876.135 997.308C876.135 1044.8 914.636 1083.3 962.131 1083.3Z" fill="#585858"/>
<path d="M998.895 913.824C1046.39 913.824 1084.89 875.323 1084.89 827.828C1084.89 780.334 1046.39 741.832 998.895 741.832C951.401 741.832 912.899 780.334 912.899 827.828C912.899 875.323 951.401 913.824 998.895 913.824Z" fill="#585858"/>
<path d="M846.308 108.561C893.802 108.561 932.304 70.0597 932.304 22.5654C932.304 -24.9289 893.802 -63.4307 846.308 -63.4307C798.814 -63.4307 760.312 -24.9289 760.312 22.5654C760.312 70.0597 798.814 108.561 846.308 108.561Z" fill="#585858"/>
<path d="M714.223 258.878C761.717 258.878 800.219 220.376 800.219 172.882C800.219 125.388 761.717 86.8858 714.223 86.8858C666.728 86.8858 628.227 125.388 628.227 172.882C628.227 220.376 666.728 258.878 714.223 258.878Z" fill="#585858"/>
</g>
<path d="M295.829 788.752C257.941 788.752 223.893 781.584 193.685 767.248C163.989 752.912 140.437 732.176 123.029 705.04C106.133 677.904 97.685 645.136 97.685 606.736V592.144H159.893V605.968C159.893 645.392 172.437 676.368 197.525 698.896C222.613 721.424 255.381 732.688 295.829 732.688C336.789 732.688 368.533 722.192 391.061 701.2C414.101 679.696 425.621 652.816 425.621 620.56V614.416C425.621 590.864 419.989 571.92 408.725 557.584C397.461 542.736 382.101 531.984 362.645 525.328C343.701 518.16 322.709 514.576 299.669 514.576H212.117V437.008L417.173 305.68V296.464H110.741V240.4H483.221V327.184L282.773 456.208V465.424H321.173C351.381 465.424 379.029 471.056 404.117 482.32C429.717 493.072 449.941 509.456 464.789 531.472C480.149 552.976 487.829 580.112 487.829 612.88V621.328C487.829 655.12 479.893 684.56 464.021 709.648C448.149 734.736 425.877 754.192 397.205 768.016C368.533 781.84 334.741 788.752 295.829 788.752ZM644.111 778V758.8C644.111 740.88 645.647 725.776 648.719 713.488C651.791 701.2 657.679 686.608 666.383 669.712L871.439 304.912V296.464H551.951V240.4H936.719V314.128L722.447 698.128C716.303 708.88 711.951 718.608 709.391 727.312C707.343 736.016 706.319 747.024 706.319 760.336V778H644.111Z" fill="#BF81FF"/>
</g>
<defs>
<clipPath id="clip0_3_3">
<rect width="1024" height="1024" fill="white"/>
</clipPath>
</defs>
</svg>
